<?xml version="1.0" encoding="UTF-8" standalone="no"?>
<!-- Created with Inkscape (http://www.inkscape.org/) -->

<svg
   version="1.1"
   id="svg2"
   xml:space="preserve"
   width="960"
   height="397.44"
   viewBox="0 0 960 397.44"
   sodipodi:docname="ctg.s1.4.arrow.50000.pdf"
   xmlns:inkscape="http://www.inkscape.org/namespaces/inkscape"
   xmlns:sodipodi="http://sodipodi.sourceforge.net/DTD/sodipodi-0.dtd"
   xmlns="http://www.w3.org/2000/svg"
   xmlns:svg="http://www.w3.org/2000/svg"><defs
     id="defs6"><clipPath
       clipPathUnits="userSpaceOnUse"
       id="clipPath18"><path
         d="m 48.1095,27.88 h 624.06 v 259.4 h -624.06 z"
         id="path16" /></clipPath><clipPath
       clipPathUnits="userSpaceOnUse"
       id="clipPath28"><path
         d="m 48.1095,27.88 h 624.06 v 259.4 h -624.06 z"
         id="path26" /></clipPath><clipPath
       clipPathUnits="userSpaceOnUse"
       id="clipPath38"><path
         d="m 48.1095,27.88 h 624.06 v 259.4 h -624.06 z"
         id="path36" /></clipPath><clipPath
       clipPathUnits="userSpaceOnUse"
       id="clipPath48"><path
         d="m 48.1095,27.88 h 624.06 v 259.4 h -624.06 z"
         id="path46" /></clipPath><clipPath
       clipPathUnits="userSpaceOnUse"
       id="clipPath58"><path
         d="m 48.1095,27.88 h 624.06 v 259.4 h -624.06 z"
         id="path56" /></clipPath><clipPath
       clipPathUnits="userSpaceOnUse"
       id="clipPath68"><path
         d="m 48.1095,27.88 h 624.06 v 259.4 h -624.06 z"
         id="path66" /></clipPath><clipPath
       clipPathUnits="userSpaceOnUse"
       id="clipPath78"><path
         d="m 48.1095,27.88 h 624.06 v 259.4 h -624.06 z"
         id="path76" /></clipPath><clipPath
       clipPathUnits="userSpaceOnUse"
       id="clipPath88"><path
         d="m 48.1095,27.88 h 624.06 v 259.4 h -624.06 z"
         id="path86" /></clipPath><clipPath
       clipPathUnits="userSpaceOnUse"
       id="clipPath98"><path
         d="m 48.1095,27.88 h 624.06 v 259.4 h -624.06 z"
         id="path96" /></clipPath><clipPath
       clipPathUnits="userSpaceOnUse"
       id="clipPath108"><path
         d="m 48.1095,27.88 h 624.06 v 259.4 h -624.06 z"
         id="path106" /></clipPath><clipPath
       clipPathUnits="userSpaceOnUse"
       id="clipPath118"><path
         d="m 48.1095,27.88 h 624.06 v 259.4 h -624.06 z"
         id="path116" /></clipPath><clipPath
       clipPathUnits="userSpaceOnUse"
       id="clipPath128"><path
         d="m 48.1095,27.88 h 624.06 v 259.4 h -624.06 z"
         id="path126" /></clipPath><clipPath
       clipPathUnits="userSpaceOnUse"
       id="clipPath138"><path
         d="m 48.1095,27.88 h 624.06 v 259.4 h -624.06 z"
         id="path136" /></clipPath><clipPath
       clipPathUnits="userSpaceOnUse"
       id="clipPath148"><path
         d="m 48.1095,27.88 h 624.06 v 259.4 h -624.06 z"
         id="path146" /></clipPath><clipPath
       clipPathUnits="userSpaceOnUse"
       id="clipPath158"><path
         d="m 48.1095,27.88 h 624.06 v 259.4 h -624.06 z"
         id="path156" /></clipPath><clipPath
       clipPathUnits="userSpaceOnUse"
       id="clipPath168"><path
         d="m 48.1095,27.88 h 624.06 v 259.4 h -624.06 z"
         id="path166" /></clipPath><clipPath
       clipPathUnits="userSpaceOnUse"
       id="clipPath178"><path
         d="m 48.1095,27.88 h 624.06 v 259.4 h -624.06 z"
         id="path176" /></clipPath><clipPath
       clipPathUnits="userSpaceOnUse"
       id="clipPath188"><path
         d="m 48.1095,27.88 h 624.06 v 259.4 h -624.06 z"
         id="path186" /></clipPath><clipPath
       clipPathUnits="userSpaceOnUse"
       id="clipPath198"><path
         d="m 48.1095,27.88 h 624.06 v 259.4 h -624.06 z"
         id="path196" /></clipPath><clipPath
       clipPathUnits="userSpaceOnUse"
       id="clipPath208"><path
         d="m 48.1095,27.88 h 624.06 v 259.4 h -624.06 z"
         id="path206" /></clipPath><clipPath
       clipPathUnits="userSpaceOnUse"
       id="clipPath218"><path
         d="m 48.1095,27.88 h 624.06 v 259.4 h -624.06 z"
         id="path216" /></clipPath><clipPath
       clipPathUnits="userSpaceOnUse"
       id="clipPath228"><path
         d="m 48.1095,27.88 h 624.06 v 259.4 h -624.06 z"
         id="path226" /></clipPath><clipPath
       clipPathUnits="userSpaceOnUse"
       id="clipPath238"><path
         d="m 48.1095,27.88 h 624.06 v 259.4 h -624.06 z"
         id="path236" /></clipPath><clipPath
       clipPathUnits="userSpaceOnUse"
       id="clipPath248"><path
         d="m 48.1095,27.88 h 624.06 v 259.4 h -624.06 z"
         id="path246" /></clipPath><clipPath
       clipPathUnits="userSpaceOnUse"
       id="clipPath258"><path
         d="m 48.1095,27.88 h 624.06 v 259.4 h -624.06 z"
         id="path256" /></clipPath><clipPath
       clipPathUnits="userSpaceOnUse"
       id="clipPath268"><path
         d="m 48.1095,27.88 h 624.06 v 259.4 h -624.06 z"
         id="path266" /></clipPath><clipPath
       clipPathUnits="userSpaceOnUse"
       id="clipPath278"><path
         d="m 48.1095,27.88 h 624.06 v 259.4 h -624.06 z"
         id="path276" /></clipPath><clipPath
       clipPathUnits="userSpaceOnUse"
       id="clipPath288"><path
         d="m 48.1095,27.88 h 624.06 v 259.4 h -624.06 z"
         id="path286" /></clipPath><clipPath
       clipPathUnits="userSpaceOnUse"
       id="clipPath298"><path
         d="m 48.1095,27.88 h 624.06 v 259.4 h -624.06 z"
         id="path296" /></clipPath><clipPath
       clipPathUnits="userSpaceOnUse"
       id="clipPath308"><path
         d="m 48.1095,27.88 h 624.06 v 259.4 h -624.06 z"
         id="path306" /></clipPath><clipPath
       clipPathUnits="userSpaceOnUse"
       id="clipPath318"><path
         d="m 48.1095,27.88 h 624.06 v 259.4 h -624.06 z"
         id="path316" /></clipPath><clipPath
       clipPathUnits="userSpaceOnUse"
       id="clipPath328"><path
         d="m 48.1095,27.88 h 624.06 v 259.4 h -624.06 z"
         id="path326" /></clipPath><clipPath
       clipPathUnits="userSpaceOnUse"
       id="clipPath338"><path
         d="m 48.1095,27.88 h 624.06 v 259.4 h -624.06 z"
         id="path336" /></clipPath></defs><sodipodi:namedview
     id="namedview4"
     pagecolor="#ffffff"
     bordercolor="#666666"
     borderopacity="1.0"
     inkscape:pageshadow="2"
     inkscape:pageopacity="0.0"
     inkscape:pagecheckerboard="0" /><g
     id="g8"
     inkscape:groupmode="layer"
     inkscape:label="ctg.s1.4.arrow.50000"
     transform="matrix(1.3333333,0,0,-1.3333333,0,397.44)"><path
       d="M 0,0 H 720 V 298.08 H 0 Z"
       style="fill:#ffffff;fill-opacity:1;fill-rule:nonzero;stroke:none"
       id="path10" /><g
       id="g12"><g
         id="g14"
         clip-path="url(#clipPath18)"><path
           d="M 47.859876,40.08591 H 672.10709"
           style="fill:none;stroke:#000000;stroke-width:1.5;stroke-linecap:square;stroke-linejoin:round;stroke-miterlimit:10;stroke-dasharray:none;stroke-opacity:1"
           id="path20" /></g></g><g
       id="g22"><g
         id="g24"
         clip-path="url(#clipPath28)"><path
           d="M 110.35948,162.14501 V 137.73319"
           style="fill:none;stroke:#000000;stroke-width:0.5;stroke-linecap:square;stroke-linejoin:round;stroke-miterlimit:10;stroke-dasharray:none;stroke-opacity:1"
           id="path30" /></g></g><g
       id="g32"><g
         id="g34"
         clip-path="url(#clipPath38)"><path
           d="M 609.60748,162.14501 V 64.49773"
           style="fill:none;stroke:#000000;stroke-width:0.5;stroke-linecap:square;stroke-linejoin:round;stroke-miterlimit:10;stroke-dasharray:none;stroke-opacity:1"
           id="path40" /></g></g><g
       id="g42"><g
         id="g44"
         clip-path="url(#clipPath48)"><path
           d="M 94.757985,210.96865 V 113.32137"
           style="fill:none;stroke:#000000;stroke-width:0.5;stroke-linecap:square;stroke-linejoin:round;stroke-miterlimit:10;stroke-dasharray:none;stroke-opacity:1"
           id="path50" /></g></g><g
       id="g52"><g
         id="g54"
         clip-path="url(#clipPath58)"><path
           d="M 625.20899,210.96865 V 88.90955"
           style="fill:none;stroke:#000000;stroke-width:0.5;stroke-linecap:square;stroke-linejoin:round;stroke-miterlimit:10;stroke-dasharray:none;stroke-opacity:1"
           id="path60" /></g></g><g
       id="g62"><g
         id="g64"
         clip-path="url(#clipPath68)"><path
           d="M 79.156485,235.38047 V 88.90955"
           style="fill:none;stroke:#000000;stroke-width:0.5;stroke-linecap:square;stroke-linejoin:round;stroke-miterlimit:10;stroke-dasharray:none;stroke-opacity:1"
           id="path70" /></g></g><g
       id="g72"><g
         id="g74"
         clip-path="url(#clipPath78)"><path
           d="M 640.81048,235.38047 V 113.32137"
           style="fill:none;stroke:#000000;stroke-width:0.5;stroke-linecap:square;stroke-linejoin:round;stroke-miterlimit:10;stroke-dasharray:none;stroke-opacity:1"
           id="path80" /></g></g><g
       id="g82"><g
         id="g84"
         clip-path="url(#clipPath88)"><path
           d="M 63.554985,186.55683 V 64.49773"
           style="fill:none;stroke:#000000;stroke-width:0.5;stroke-linecap:square;stroke-linejoin:round;stroke-miterlimit:10;stroke-dasharray:none;stroke-opacity:1"
           id="path90" /></g></g><g
       id="g92"><g
         id="g94"
         clip-path="url(#clipPath98)"><path
           d="M 656.41198,186.55683 V 137.73319"
           style="fill:none;stroke:#000000;stroke-width:0.5;stroke-linecap:square;stroke-linejoin:round;stroke-miterlimit:10;stroke-dasharray:none;stroke-opacity:1"
           id="path100" /></g></g><g
       id="g102"><g
         id="g104"
         clip-path="url(#clipPath108)"><path
           d="m 203.96849,33.08591 c -49.20383,0 -98.40766,0 -147.611487,0 v 0 c -2.801173,2.333333 -5.602345,4.666667 -8.403518,7 2.801173,2.333333 5.602345,4.666667 8.403518,7 v 0 c 49.203827,0 98.407657,0 147.611487,0 z"
           style="fill:#673ab7;fill-opacity:1;fill-rule:nonzero;stroke:#000000;stroke-width:1;stroke-linecap:round;stroke-linejoin:round;stroke-miterlimit:10;stroke-dasharray:none;stroke-opacity:1"
           id="path110" /></g></g><g
       id="g112"><g
         id="g114"
         clip-path="url(#clipPath118)"><path
           d="m 235.17148,57.49773 c -49.20382,0 -98.40765,0 -147.611477,0 v 0 c -2.801173,2.333333 -5.602345,4.666667 -8.403518,7 2.801173,2.333333 5.602345,4.666667 8.403518,7 v 0 c 49.203827,0 98.407657,0 147.611477,0 z"
           style="fill:#673ab7;fill-opacity:1;fill-rule:nonzero;stroke:#000000;stroke-width:1;stroke-linecap:round;stroke-linejoin:round;stroke-miterlimit:10;stroke-dasharray:none;stroke-opacity:1"
           id="path120" /></g></g><g
       id="g122"><g
         id="g124"
         clip-path="url(#clipPath128)"><path
           d="m 266.37449,81.90955 c -49.20383,0 -98.40766,0 -147.61149,0 v 0 c -2.80117,2.333333 -5.60234,4.666667 -8.40352,7 2.80118,2.333333 5.60235,4.666667 8.40352,7 v 0 c 49.20383,0 98.40766,0 147.61149,0 z"
           style="fill:#673ab7;fill-opacity:1;fill-rule:nonzero;stroke:#000000;stroke-width:1;stroke-linecap:round;stroke-linejoin:round;stroke-miterlimit:10;stroke-dasharray:none;stroke-opacity:1"
           id="path130" /></g></g><g
       id="g132"><g
         id="g134"
         clip-path="url(#clipPath138)"><path
           d="m 297.57749,106.32137 c -49.20383,0 -98.40766,0 -147.61149,0 v 0 c -2.80117,2.33333 -5.60234,4.66667 -8.40352,7 2.80118,2.33333 5.60235,4.66667 8.40352,7 v 0 c 49.20383,0 98.40766,0 147.61149,0 z"
           style="fill:#673ab7;fill-opacity:1;fill-rule:nonzero;stroke:#000000;stroke-width:1;stroke-linecap:round;stroke-linejoin:round;stroke-miterlimit:10;stroke-dasharray:none;stroke-opacity:1"
           id="path140" /></g></g><g
       id="g142"><g
         id="g144"
         clip-path="url(#clipPath148)"><path
           d="m 328.78048,130.73319 c -49.20382,0 -98.40765,0 -147.61148,0 v 0 c -2.80117,2.33333 -5.60234,4.66667 -8.40352,7 2.80118,2.33333 5.60235,4.66667 8.40352,7 v 0 c 49.20383,0 98.40766,0 147.61148,0 z"
           style="fill:#673ab7;fill-opacity:1;fill-rule:nonzero;stroke:#000000;stroke-width:1;stroke-linecap:round;stroke-linejoin:round;stroke-miterlimit:10;stroke-dasharray:none;stroke-opacity:1"
           id="path150" /></g></g><g
       id="g152"><g
         id="g154"
         clip-path="url(#clipPath158)"><path
           d="m 359.98348,33.08591 c -49.20382,0 -98.40765,0 -147.61148,0 v 0 c -2.80117,2.333333 -5.60234,4.666667 -8.40351,7 2.80117,2.333333 5.60234,4.666667 8.40351,7 v 0 c 49.20383,0 98.40766,0 147.61148,0 z"
           style="fill:#673ab7;fill-opacity:1;fill-rule:nonzero;stroke:#000000;stroke-width:1;stroke-linecap:round;stroke-linejoin:round;stroke-miterlimit:10;stroke-dasharray:none;stroke-opacity:1"
           id="path160" /></g></g><g
       id="g162"><g
         id="g164"
         clip-path="url(#clipPath168)"><path
           d="m 391.18648,57.49773 c -49.20382,0 -98.40765,0 -147.61148,0 v 0 c -2.80117,2.333333 -5.60234,4.666667 -8.40352,7 2.80118,2.333333 5.60235,4.666667 8.40352,7 v 0 c 49.20383,0 98.40766,0 147.61148,0 z"
           style="fill:#673ab7;fill-opacity:1;fill-rule:nonzero;stroke:#000000;stroke-width:1;stroke-linecap:round;stroke-linejoin:round;stroke-miterlimit:10;stroke-dasharray:none;stroke-opacity:1"
           id="path170" /></g></g><g
       id="g172"><g
         id="g174"
         clip-path="url(#clipPath178)"><path
           d="m 422.38949,81.90955 c -49.20383,0 -98.40766,0 -147.61149,0 v 0 c -2.80117,2.333333 -5.60234,4.666667 -8.40351,7 2.80117,2.333333 5.60234,4.666667 8.40351,7 v 0 c 49.20383,0 98.40766,0 147.61149,0 z"
           style="fill:#673ab7;fill-opacity:1;fill-rule:nonzero;stroke:#000000;stroke-width:1;stroke-linecap:round;stroke-linejoin:round;stroke-miterlimit:10;stroke-dasharray:none;stroke-opacity:1"
           id="path180" /></g></g><g
       id="g182"><g
         id="g184"
         clip-path="url(#clipPath188)"><path
           d="m 453.59248,106.32137 c -49.20382,0 -98.40765,0 -147.61148,0 v 0 c -2.80117,2.33333 -5.60234,4.66667 -8.40351,7 2.80117,2.33333 5.60234,4.66667 8.40351,7 v 0 c 49.20383,0 98.40766,0 147.61148,0 z"
           style="fill:#673ab7;fill-opacity:1;fill-rule:nonzero;stroke:#000000;stroke-width:1;stroke-linecap:round;stroke-linejoin:round;stroke-miterlimit:10;stroke-dasharray:none;stroke-opacity:1"
           id="path190" /></g></g><g
       id="g192"><g
         id="g194"
         clip-path="url(#clipPath198)"><path
           d="m 484.79548,130.73319 c -49.20382,0 -98.40765,0 -147.61148,0 v 0 c -2.80117,2.33333 -5.60234,4.66667 -8.40352,7 2.80118,2.33333 5.60235,4.66667 8.40352,7 v 0 c 49.20383,0 98.40766,0 147.61148,0 z"
           style="fill:#673ab7;fill-opacity:1;fill-rule:nonzero;stroke:#000000;stroke-width:1;stroke-linecap:round;stroke-linejoin:round;stroke-miterlimit:10;stroke-dasharray:none;stroke-opacity:1"
           id="path200" /></g></g><g
       id="g202"><g
         id="g204"
         clip-path="url(#clipPath208)"><path
           d="m 515.99849,33.08591 c -49.20383,0 -98.40766,0 -147.61149,0 v 0 c -2.80117,2.333333 -5.60234,4.666667 -8.40352,7 2.80118,2.333333 5.60235,4.666667 8.40352,7 v 0 c 49.20383,0 98.40766,0 147.61149,0 z"
           style="fill:#673ab7;fill-opacity:1;fill-rule:nonzero;stroke:#000000;stroke-width:1;stroke-linecap:round;stroke-linejoin:round;stroke-miterlimit:10;stroke-dasharray:none;stroke-opacity:1"
           id="path210" /></g></g><g
       id="g212"><g
         id="g214"
         clip-path="url(#clipPath218)"><path
           d="m 547.20149,57.49773 c -49.20383,0 -98.40766,0 -147.61149,0 v 0 c -2.80117,2.333333 -5.60234,4.666667 -8.40352,7 2.80118,2.333333 5.60235,4.666667 8.40352,7 v 0 c 49.20383,0 98.40766,0 147.61149,0 z"
           style="fill:#673ab7;fill-opacity:1;fill-rule:nonzero;stroke:#000000;stroke-width:1;stroke-linecap:round;stroke-linejoin:round;stroke-miterlimit:10;stroke-dasharray:none;stroke-opacity:1"
           id="path220" /></g></g><g
       id="g222"><g
         id="g224"
         clip-path="url(#clipPath228)"><path
           d="m 578.40449,81.90955 c -49.20383,0 -98.40766,0 -147.61149,0 v 0 c -2.80117,2.333333 -5.60234,4.666667 -8.40351,7 2.80117,2.333333 5.60234,4.666667 8.40351,7 v 0 c 49.20383,0 98.40766,0 147.61149,0 z"
           style="fill:#673ab7;fill-opacity:1;fill-rule:nonzero;stroke:#000000;stroke-width:1;stroke-linecap:round;stroke-linejoin:round;stroke-miterlimit:10;stroke-dasharray:none;stroke-opacity:1"
           id="path230" /></g></g><g
       id="g232"><g
         id="g234"
         clip-path="url(#clipPath238)"><path
           d="m 609.60748,106.32137 c -49.20382,0 -98.40765,0 -147.61148,0 v 0 c -2.80117,2.33333 -5.60234,4.66667 -8.40352,7 2.80118,2.33333 5.60235,4.66667 8.40352,7 v 0 c 49.20383,0 98.40766,0 147.61148,0 z"
           style="fill:#673ab7;fill-opacity:1;fill-rule:nonzero;stroke:#000000;stroke-width:1;stroke-linecap:round;stroke-linejoin:round;stroke-miterlimit:10;stroke-dasharray:none;stroke-opacity:1"
           id="path240" /></g></g><g
       id="g242"><g
         id="g244"
         clip-path="url(#clipPath248)"><path
           d="m 640.81048,130.73319 c -49.20382,0 -98.40765,0 -147.61148,0 v 0 c -2.80117,2.33333 -5.60234,4.66667 -8.40352,7 2.80118,2.33333 5.60235,4.66667 8.40352,7 v 0 c 49.20383,0 98.40766,0 147.61148,0 z"
           style="fill:#673ab7;fill-opacity:1;fill-rule:nonzero;stroke:#000000;stroke-width:1;stroke-linecap:round;stroke-linejoin:round;stroke-miterlimit:10;stroke-dasharray:none;stroke-opacity:1"
           id="path250" /></g></g><g
       id="g252"><g
         id="g254"
         clip-path="url(#clipPath258)"><path
           d="m 672.01349,33.08591 c -49.20383,0 -98.40766,0 -147.61149,0 v 0 c -2.80117,2.333333 -5.60234,4.666667 -8.40351,7 2.80117,2.333333 5.60234,4.666667 8.40351,7 v 0 c 49.20383,0 98.40766,0 147.61149,0 z"
           style="fill:#673ab7;fill-opacity:1;fill-rule:nonzero;stroke:#000000;stroke-width:1;stroke-linecap:round;stroke-linejoin:round;stroke-miterlimit:10;stroke-dasharray:none;stroke-opacity:1"
           id="path260" /></g></g><g
       id="g262"><g
         id="g264"
         clip-path="url(#clipPath268)"><path
           d="m 172.76548,130.73319 c -41.70673,0 -83.413469,0 -125.120207,0 v 0 c -0.0013,2.33333 -0.0025,4.66667 -0.0038,7 0.0013,2.33333 0.0025,4.66667 0.0038,7 v 0 c 41.706738,0 83.413477,0 125.120207,0 z"
           style="fill:#673ab7;fill-opacity:1;fill-rule:nonzero;stroke:#000000;stroke-width:1;stroke-linecap:round;stroke-linejoin:round;stroke-miterlimit:10;stroke-dasharray:none;stroke-opacity:1"
           id="path270" /></g></g><g
       id="g272"><g
         id="g274"
         clip-path="url(#clipPath278)"><path
           d="m 672.32551,57.49773 c -38.90906,0 -77.81812,0 -116.72718,0 v 0 c -2.79895,2.333333 -5.5979,4.666667 -8.39684,7 2.79894,2.333333 5.59789,4.666667 8.39684,7 v 0 c 38.90906,0 77.81812,0 116.72718,0 z"
           style="fill:#673ab7;fill-opacity:1;fill-rule:nonzero;stroke:#000000;stroke-width:1;stroke-linecap:round;stroke-linejoin:round;stroke-miterlimit:10;stroke-dasharray:none;stroke-opacity:1"
           id="path280" /></g></g><g
       id="g282"><g
         id="g284"
         clip-path="url(#clipPath288)"><path
           d="m 141.56248,106.32137 c -31.30605,0 -62.612104,0 -93.918159,0 v 0 c -9.55e-4,2.33333 -0.0019,4.66667 -0.0029,7 9.55e-4,2.33333 0.0019,4.66667 0.0029,7 v 0 c 31.306055,0 62.612109,0 93.918159,0 z"
           style="fill:#673ab7;fill-opacity:1;fill-rule:nonzero;stroke:#000000;stroke-width:1;stroke-linecap:round;stroke-linejoin:round;stroke-miterlimit:10;stroke-dasharray:none;stroke-opacity:1"
           id="path290" /></g></g><g
       id="g292"><g
         id="g294"
         clip-path="url(#clipPath298)"><path
           d="m 672.32551,81.90955 c -28.50669,0 -57.01338,0 -85.52007,0 v 0 c -2.80032,2.333333 -5.60064,4.666667 -8.40095,7 2.80031,2.333333 5.60063,4.666667 8.40095,7 v 0 c 28.50669,0 57.01338,0 85.52007,0 z"
           style="fill:#673ab7;fill-opacity:1;fill-rule:nonzero;stroke:#000000;stroke-width:1;stroke-linecap:round;stroke-linejoin:round;stroke-miterlimit:10;stroke-dasharray:none;stroke-opacity:1"
           id="path300" /></g></g><g
       id="g302"><g
         id="g304"
         clip-path="url(#clipPath308)"><path
           d="m 110.35948,81.90955 c -20.904729,0 -41.809463,0 -62.714197,0 v 0 c -0.0013,2.333333 -0.0026,4.666667 -0.0038,7 0.0013,2.333333 0.0026,4.666667 0.0038,7 v 0 c 20.904734,0 41.809468,0 62.714197,0 z"
           style="fill:#673ab7;fill-opacity:1;fill-rule:nonzero;stroke:#000000;stroke-width:1;stroke-linecap:round;stroke-linejoin:round;stroke-miterlimit:10;stroke-dasharray:none;stroke-opacity:1"
           id="path310" /></g></g><g
       id="g312"><g
         id="g314"
         clip-path="url(#clipPath318)"><path
           d="m 672.32551,106.32137 c -18.10518,0 -36.21037,0 -54.31556,0 v 0 c -2.80082,2.33333 -5.60164,4.66667 -8.40247,7 2.80083,2.33333 5.60165,4.66667 8.40247,7 v 0 c 18.10519,0 36.21038,0 54.31556,0 z"
           style="fill:#673ab7;fill-opacity:1;fill-rule:nonzero;stroke:#000000;stroke-width:1;stroke-linecap:round;stroke-linejoin:round;stroke-miterlimit:10;stroke-dasharray:none;stroke-opacity:1"
           id="path320" /></g></g><g
       id="g322"><g
         id="g324"
         clip-path="url(#clipPath328)"><path
           d="m 79.156485,57.49773 c -10.503728,0 -21.007455,0 -31.511183,0 v 0 c -0.0013,2.333333 -0.0026,4.666667 -0.0038,7 0.0013,2.333333 0.0026,4.666667 0.0038,7 v 0 c 10.503728,0 21.007455,0 31.511183,0 z"
           style="fill:#673ab7;fill-opacity:1;fill-rule:nonzero;stroke:#000000;stroke-width:1;stroke-linecap:round;stroke-linejoin:round;stroke-miterlimit:10;stroke-dasharray:none;stroke-opacity:1"
           id="path330" /></g></g><g
       id="g332"><g
         id="g334"
         clip-path="url(#clipPath338)"><path
           d="m 672.32551,130.73319 c -7.70563,0 -15.41128,0 -23.11692,0 v 0 c -2.79937,2.33333 -5.59873,4.66667 -8.39811,7 2.79938,2.33333 5.59874,4.66667 8.39811,7 v 0 c 7.70564,0 15.41129,0 23.11692,0 z"
           style="fill:#673ab7;fill-opacity:1;fill-rule:nonzero;stroke:#000000;stroke-width:1;stroke-linecap:round;stroke-linejoin:round;stroke-miterlimit:10;stroke-dasharray:none;stroke-opacity:1"
           id="path340" /></g></g><g
       id="g342"><path
         d="m 48.1095,27.88 v -3.5"
         style="fill:#808080;fill-opacity:1;fill-rule:nonzero;stroke:#808080;stroke-width:0.8;stroke-linecap:butt;stroke-linejoin:round;stroke-miterlimit:10;stroke-dasharray:none;stroke-opacity:1"
         id="path344" /><g
         id="g346"
         transform="translate(30.617312,13.28625)"><text
           transform="scale(1,-1)"
           style="font-variant:normal;font-weight:normal;font-size:10px;font-family:DejaVuSans;-inkscape-font-specification:DejaVuSans;writing-mode:lr-tb;fill:#808080;fill-opacity:1;fill-rule:nonzero;stroke:none"
           id="text350"><tspan
             x="0 6.3600001 12.72 15.9 22.26 28.620001"
             y="0"
             sodipodi:role="line"
             id="tspan348">49,000</tspan></text></g><path
         d="m 110.5155,27.88 v -3.5"
         style="fill:#808080;fill-opacity:1;fill-rule:nonzero;stroke:#808080;stroke-width:0.8;stroke-linecap:butt;stroke-linejoin:round;stroke-miterlimit:10;stroke-dasharray:none;stroke-opacity:1"
         id="path352" /><g
         id="g354"
         transform="translate(93.023312,13.28625)"><text
           transform="scale(1,-1)"
           style="font-variant:normal;font-weight:normal;font-size:10px;font-family:DejaVuSans;-inkscape-font-specification:DejaVuSans;writing-mode:lr-tb;fill:#808080;fill-opacity:1;fill-rule:nonzero;stroke:none"
           id="text358"><tspan
             x="0 6.3600001 12.72 15.9 22.26 28.620001"
             y="0"
             sodipodi:role="line"
             id="tspan356">49,200</tspan></text></g><path
         d="m 172.9215,27.88 v -3.5"
         style="fill:#808080;fill-opacity:1;fill-rule:nonzero;stroke:#808080;stroke-width:0.8;stroke-linecap:butt;stroke-linejoin:round;stroke-miterlimit:10;stroke-dasharray:none;stroke-opacity:1"
         id="path360" /><g
         id="g362"
         transform="translate(155.42931,13.28625)"><text
           transform="scale(1,-1)"
           style="font-variant:normal;font-weight:normal;font-size:10px;font-family:DejaVuSans;-inkscape-font-specification:DejaVuSans;writing-mode:lr-tb;fill:#808080;fill-opacity:1;fill-rule:nonzero;stroke:none"
           id="text366"><tspan
             x="0 6.3600001 12.72 15.9 22.26 28.620001"
             y="0"
             sodipodi:role="line"
             id="tspan364">49,400</tspan></text></g><path
         d="m 235.3275,27.88 v -3.5"
         style="fill:#808080;fill-opacity:1;fill-rule:nonzero;stroke:#808080;stroke-width:0.8;stroke-linecap:butt;stroke-linejoin:round;stroke-miterlimit:10;stroke-dasharray:none;stroke-opacity:1"
         id="path368" /><g
         id="g370"
         transform="translate(217.83531,13.28625)"><text
           transform="scale(1,-1)"
           style="font-variant:normal;font-weight:normal;font-size:10px;font-family:DejaVuSans;-inkscape-font-specification:DejaVuSans;writing-mode:lr-tb;fill:#808080;fill-opacity:1;fill-rule:nonzero;stroke:none"
           id="text374"><tspan
             x="0 6.3600001 12.72 15.9 22.26 28.620001"
             y="0"
             sodipodi:role="line"
             id="tspan372">49,600</tspan></text></g><path
         d="m 297.7335,27.88 v -3.5"
         style="fill:#808080;fill-opacity:1;fill-rule:nonzero;stroke:#808080;stroke-width:0.8;stroke-linecap:butt;stroke-linejoin:round;stroke-miterlimit:10;stroke-dasharray:none;stroke-opacity:1"
         id="path376" /><g
         id="g378"
         transform="translate(280.24131,13.28625)"><text
           transform="scale(1,-1)"
           style="font-variant:normal;font-weight:normal;font-size:10px;font-family:DejaVuSans;-inkscape-font-specification:DejaVuSans;writing-mode:lr-tb;fill:#808080;fill-opacity:1;fill-rule:nonzero;stroke:none"
           id="text382"><tspan
             x="0 6.3600001 12.72 15.9 22.26 28.620001"
             y="0"
             sodipodi:role="line"
             id="tspan380">49,800</tspan></text></g><path
         d="m 360.1395,27.88 v -3.5"
         style="fill:#808080;fill-opacity:1;fill-rule:nonzero;stroke:#808080;stroke-width:0.8;stroke-linecap:butt;stroke-linejoin:round;stroke-miterlimit:10;stroke-dasharray:none;stroke-opacity:1"
         id="path384" /><g
         id="g386"
         transform="translate(342.64731,13.28625)"><text
           transform="scale(1,-1)"
           style="font-variant:normal;font-weight:normal;font-size:10px;font-family:DejaVuSans;-inkscape-font-specification:DejaVuSans;writing-mode:lr-tb;fill:#808080;fill-opacity:1;fill-rule:nonzero;stroke:none"
           id="text390"><tspan
             x="0 6.3600001 12.72 15.9 22.26 28.620001"
             y="0"
             sodipodi:role="line"
             id="tspan388">50,000</tspan></text></g><path
         d="m 422.5455,27.88 v -3.5"
         style="fill:#808080;fill-opacity:1;fill-rule:nonzero;stroke:#808080;stroke-width:0.8;stroke-linecap:butt;stroke-linejoin:round;stroke-miterlimit:10;stroke-dasharray:none;stroke-opacity:1"
         id="path392" /><g
         id="g394"
         transform="translate(405.05331,13.28625)"><text
           transform="scale(1,-1)"
           style="font-variant:normal;font-weight:normal;font-size:10px;font-family:DejaVuSans;-inkscape-font-specification:DejaVuSans;writing-mode:lr-tb;fill:#808080;fill-opacity:1;fill-rule:nonzero;stroke:none"
           id="text398"><tspan
             x="0 6.3600001 12.72 15.9 22.26 28.620001"
             y="0"
             sodipodi:role="line"
             id="tspan396">50,200</tspan></text></g><path
         d="m 484.9515,27.88 v -3.5"
         style="fill:#808080;fill-opacity:1;fill-rule:nonzero;stroke:#808080;stroke-width:0.8;stroke-linecap:butt;stroke-linejoin:round;stroke-miterlimit:10;stroke-dasharray:none;stroke-opacity:1"
         id="path400" /><g
         id="g402"
         transform="translate(467.45931,13.28625)"><text
           transform="scale(1,-1)"
           style="font-variant:normal;font-weight:normal;font-size:10px;font-family:DejaVuSans;-inkscape-font-specification:DejaVuSans;writing-mode:lr-tb;fill:#808080;fill-opacity:1;fill-rule:nonzero;stroke:none"
           id="text406"><tspan
             x="0 6.3600001 12.72 15.9 22.26 28.620001"
             y="0"
             sodipodi:role="line"
             id="tspan404">50,400</tspan></text></g><path
         d="m 547.3575,27.88 v -3.5"
         style="fill:#808080;fill-opacity:1;fill-rule:nonzero;stroke:#808080;stroke-width:0.8;stroke-linecap:butt;stroke-linejoin:round;stroke-miterlimit:10;stroke-dasharray:none;stroke-opacity:1"
         id="path408" /><g
         id="g410"
         transform="translate(529.86531,13.28625)"><text
           transform="scale(1,-1)"
           style="font-variant:normal;font-weight:normal;font-size:10px;font-family:DejaVuSans;-inkscape-font-specification:DejaVuSans;writing-mode:lr-tb;fill:#808080;fill-opacity:1;fill-rule:nonzero;stroke:none"
           id="text414"><tspan
             x="0 6.3600001 12.72 15.9 22.26 28.620001"
             y="0"
             sodipodi:role="line"
             id="tspan412">50,600</tspan></text></g><path
         d="m 609.7635,27.88 v -3.5"
         style="fill:#808080;fill-opacity:1;fill-rule:nonzero;stroke:#808080;stroke-width:0.8;stroke-linecap:butt;stroke-linejoin:round;stroke-miterlimit:10;stroke-dasharray:none;stroke-opacity:1"
         id="path416" /><g
         id="g418"
         transform="translate(592.27131,13.28625)"><text
           transform="scale(1,-1)"
           style="font-variant:normal;font-weight:normal;font-size:10px;font-family:DejaVuSans;-inkscape-font-specification:DejaVuSans;writing-mode:lr-tb;fill:#808080;fill-opacity:1;fill-rule:nonzero;stroke:none"
           id="text422"><tspan
             x="0 6.3600001 12.72 15.9 22.26 28.620001"
             y="0"
             sodipodi:role="line"
             id="tspan420">50,800</tspan></text></g><path
         d="m 672.1695,27.88 v -3.5"
         style="fill:#808080;fill-opacity:1;fill-rule:nonzero;stroke:#808080;stroke-width:0.8;stroke-linecap:butt;stroke-linejoin:round;stroke-miterlimit:10;stroke-dasharray:none;stroke-opacity:1"
         id="path424" /><g
         id="g426"
         transform="translate(654.67731,13.28625)"><text
           transform="scale(1,-1)"
           style="font-variant:normal;font-weight:normal;font-size:10px;font-family:DejaVuSans;-inkscape-font-specification:DejaVuSans;writing-mode:lr-tb;fill:#808080;fill-opacity:1;fill-rule:nonzero;stroke:none"
           id="text430"><tspan
             x="0 6.3600001 12.72 15.9 22.26 28.620001"
             y="0"
             sodipodi:role="line"
             id="tspan428">51,000</tspan></text></g><g
         id="g432"
         transform="translate(74.906298,37.046848)"><text
           transform="scale(1,-1)"
           style="font-variant:normal;font-weight:normal;font-size:11px;font-family:DejaVuSans;-inkscape-font-specification:DejaVuSans;writing-mode:lr-tb;fill:#ffffff;fill-opacity:1;fill-rule:nonzero;stroke:none"
           id="text436"><tspan
             x="0 6.0500002 10.362 17.347 20.844999 26.576 33.571999 37.07 44.066002 47.563999 54.306999 58.640499 62.927124 69.659126 77.657127 81.155128 88.151123 95.147125"
             y="0"
             sodipodi:role="line"
             id="tspan434">ctg.s1.4.arrow.490</tspan></text></g><g
         id="g438"
         transform="translate(106.1093,61.458668)"><text
           transform="scale(1,-1)"
           style="font-variant:normal;font-weight:normal;font-size:11px;font-family:DejaVuSans;-inkscape-font-specification:DejaVuSans;writing-mode:lr-tb;fill:#ffffff;fill-opacity:1;fill-rule:nonzero;stroke:none"
           id="text442"><tspan
             x="0 6.0500002 10.362 17.347 20.844999 26.576 33.571999 37.07 44.066002 47.563999 54.306999 58.640499 62.927124 69.659126 77.657127 81.155128 88.151123 95.147125"
             y="0"
             sodipodi:role="line"
             id="tspan440">ctg.s1.4.arrow.491</tspan></text></g><g
         id="g444"
         transform="translate(137.3123,85.870488)"><text
           transform="scale(1,-1)"
           style="font-variant:normal;font-weight:normal;font-size:11px;font-family:DejaVuSans;-inkscape-font-specification:DejaVuSans;writing-mode:lr-tb;fill:#ffffff;fill-opacity:1;fill-rule:nonzero;stroke:none"
           id="text448"><tspan
             x="0 6.0500002 10.362 17.347 20.844999 26.576 33.571999 37.07 44.066002 47.563999 54.306999 58.640499 62.927124 69.659126 77.657127 81.155128 88.151123 95.147125"
             y="0"
             sodipodi:role="line"
             id="tspan446">ctg.s1.4.arrow.492</tspan></text></g><g
         id="g450"
         transform="translate(168.5153,110.28231)"><text
           transform="scale(1,-1)"
           style="font-variant:normal;font-weight:normal;font-size:11px;font-family:DejaVuSans;-inkscape-font-specification:DejaVuSans;writing-mode:lr-tb;fill:#ffffff;fill-opacity:1;fill-rule:nonzero;stroke:none"
           id="text454"><tspan
             x="0 6.0500002 10.362 17.347 20.844999 26.576 33.571999 37.07 44.066002 47.563999 54.306999 58.640499 62.927124 69.659126 77.657127 81.155128 88.151123 95.147125"
             y="0"
             sodipodi:role="line"
             id="tspan452">ctg.s1.4.arrow.493</tspan></text></g><g
         id="g456"
         transform="translate(199.7183,134.69413)"><text
           transform="scale(1,-1)"
           style="font-variant:normal;font-weight:normal;font-size:11px;font-family:DejaVuSans;-inkscape-font-specification:DejaVuSans;writing-mode:lr-tb;fill:#ffffff;fill-opacity:1;fill-rule:nonzero;stroke:none"
           id="text460"><tspan
             x="0 6.0500002 10.362 17.347 20.844999 26.576 33.571999 37.07 44.066002 47.563999 54.306999 58.640499 62.927124 69.659126 77.657127 81.155128 88.151123 95.147125"
             y="0"
             sodipodi:role="line"
             id="tspan458">ctg.s1.4.arrow.494</tspan></text></g><g
         id="g462"
         transform="translate(230.9213,37.046848)"><text
           transform="scale(1,-1)"
           style="font-variant:normal;font-weight:normal;font-size:11px;font-family:DejaVuSans;-inkscape-font-specification:DejaVuSans;writing-mode:lr-tb;fill:#ffffff;fill-opacity:1;fill-rule:nonzero;stroke:none"
           id="text466"><tspan
             x="0 6.0500002 10.362 17.347 20.844999 26.576 33.571999 37.07 44.066002 47.563999 54.306999 58.640499 62.927124 69.659126 77.657127 81.155128 88.151123 95.147125"
             y="0"
             sodipodi:role="line"
             id="tspan464">ctg.s1.4.arrow.495</tspan></text></g><g
         id="g468"
         transform="translate(262.1243,61.458668)"><text
           transform="scale(1,-1)"
           style="font-variant:normal;font-weight:normal;font-size:11px;font-family:DejaVuSans;-inkscape-font-specification:DejaVuSans;writing-mode:lr-tb;fill:#ffffff;fill-opacity:1;fill-rule:nonzero;stroke:none"
           id="text472"><tspan
             x="0 6.0500002 10.362 17.347 20.844999 26.576 33.571999 37.07 44.066002 47.563999 54.306999 58.640499 62.927124 69.659126 77.657127 81.155128 88.151123 95.147125"
             y="0"
             sodipodi:role="line"
             id="tspan470">ctg.s1.4.arrow.496</tspan></text></g><g
         id="g474"
         transform="translate(293.3273,85.870488)"><text
           transform="scale(1,-1)"
           style="font-variant:normal;font-weight:normal;font-size:11px;font-family:DejaVuSans;-inkscape-font-specification:DejaVuSans;writing-mode:lr-tb;fill:#ffffff;fill-opacity:1;fill-rule:nonzero;stroke:none"
           id="text478"><tspan
             x="0 6.0500002 10.362 17.347 20.844999 26.576 33.571999 37.07 44.066002 47.563999 54.306999 58.640499 62.927124 69.659126 77.657127 81.155128 88.151123 95.147125"
             y="0"
             sodipodi:role="line"
             id="tspan476">ctg.s1.4.arrow.497</tspan></text></g><g
         id="g480"
         transform="translate(324.5303,110.28231)"><text
           transform="scale(1,-1)"
           style="font-variant:normal;font-weight:normal;font-size:11px;font-family:DejaVuSans;-inkscape-font-specification:DejaVuSans;writing-mode:lr-tb;fill:#ffffff;fill-opacity:1;fill-rule:nonzero;stroke:none"
           id="text484"><tspan
             x="0 6.0500002 10.362 17.347 20.844999 26.576 33.571999 37.07 44.066002 47.563999 54.306999 58.640499 62.927124 69.659126 77.657127 81.155128 88.151123 95.147125"
             y="0"
             sodipodi:role="line"
             id="tspan482">ctg.s1.4.arrow.498</tspan></text></g><g
         id="g486"
         transform="translate(355.7333,134.69413)"><text
           transform="scale(1,-1)"
           style="font-variant:normal;font-weight:normal;font-size:11px;font-family:DejaVuSans;-inkscape-font-specification:DejaVuSans;writing-mode:lr-tb;fill:#ffffff;fill-opacity:1;fill-rule:nonzero;stroke:none"
           id="text490"><tspan
             x="0 6.0500002 10.362 17.347 20.844999 26.576 33.571999 37.07 44.066002 47.563999 54.306999 58.640499 62.927124 69.659126 77.657127 81.155128 88.151123 95.147125"
             y="0"
             sodipodi:role="line"
             id="tspan488">ctg.s1.4.arrow.499</tspan></text></g><g
         id="g492"
         transform="translate(386.9363,37.046848)"><text
           transform="scale(1,-1)"
           style="font-variant:normal;font-weight:normal;font-size:11px;font-family:DejaVuSans;-inkscape-font-specification:DejaVuSans;writing-mode:lr-tb;fill:#ffffff;fill-opacity:1;fill-rule:nonzero;stroke:none"
           id="text496"><tspan
             x="0 6.0500002 10.362 17.347 20.844999 26.576 33.571999 37.07 44.066002 47.563999 54.306999 58.640499 62.927124 69.659126 77.657127 81.155128 88.151123 95.147125"
             y="0"
             sodipodi:role="line"
             id="tspan494">ctg.s1.4.arrow.500</tspan></text></g><g
         id="g498"
         transform="translate(418.1393,61.458668)"><text
           transform="scale(1,-1)"
           style="font-variant:normal;font-weight:normal;font-size:11px;font-family:DejaVuSans;-inkscape-font-specification:DejaVuSans;writing-mode:lr-tb;fill:#ffffff;fill-opacity:1;fill-rule:nonzero;stroke:none"
           id="text502"><tspan
             x="0 6.0500002 10.362 17.347 20.844999 26.576 33.571999 37.07 44.066002 47.563999 54.306999 58.640499 62.927124 69.659126 77.657127 81.155128 88.151123 95.147125"
             y="0"
             sodipodi:role="line"
             id="tspan500">ctg.s1.4.arrow.501</tspan></text></g><g
         id="g504"
         transform="translate(449.3423,85.870488)"><text
           transform="scale(1,-1)"
           style="font-variant:normal;font-weight:normal;font-size:11px;font-family:DejaVuSans;-inkscape-font-specification:DejaVuSans;writing-mode:lr-tb;fill:#ffffff;fill-opacity:1;fill-rule:nonzero;stroke:none"
           id="text508"><tspan
             x="0 6.0500002 10.362 17.347 20.844999 26.576 33.571999 37.07 44.066002 47.563999 54.306999 58.640499 62.927124 69.659126 77.657127 81.155128 88.151123 95.147125"
             y="0"
             sodipodi:role="line"
             id="tspan506">ctg.s1.4.arrow.502</tspan></text></g><g
         id="g510"
         transform="translate(480.5453,110.28231)"><text
           transform="scale(1,-1)"
           style="font-variant:normal;font-weight:normal;font-size:11px;font-family:DejaVuSans;-inkscape-font-specification:DejaVuSans;writing-mode:lr-tb;fill:#ffffff;fill-opacity:1;fill-rule:nonzero;stroke:none"
           id="text514"><tspan
             x="0 6.0500002 10.362 17.347 20.844999 26.576 33.571999 37.07 44.066002 47.563999 54.306999 58.640499 62.927124 69.659126 77.657127 81.155128 88.151123 95.147125"
             y="0"
             sodipodi:role="line"
             id="tspan512">ctg.s1.4.arrow.503</tspan></text></g><g
         id="g516"
         transform="translate(511.7483,134.69413)"><text
           transform="scale(1,-1)"
           style="font-variant:normal;font-weight:normal;font-size:11px;font-family:DejaVuSans;-inkscape-font-specification:DejaVuSans;writing-mode:lr-tb;fill:#ffffff;fill-opacity:1;fill-rule:nonzero;stroke:none"
           id="text520"><tspan
             x="0 6.0500002 10.362 17.347 20.844999 26.576 33.571999 37.07 44.066002 47.563999 54.306999 58.640499 62.927124 69.659126 77.657127 81.155128 88.151123 95.147125"
             y="0"
             sodipodi:role="line"
             id="tspan518">ctg.s1.4.arrow.504</tspan></text></g><g
         id="g522"
         transform="translate(542.9513,37.046848)"><text
           transform="scale(1,-1)"
           style="font-variant:normal;font-weight:normal;font-size:11px;font-family:DejaVuSans;-inkscape-font-specification:DejaVuSans;writing-mode:lr-tb;fill:#ffffff;fill-opacity:1;fill-rule:nonzero;stroke:none"
           id="text526"><tspan
             x="0 6.0500002 10.362 17.347 20.844999 26.576 33.571999 37.07 44.066002 47.563999 54.306999 58.640499 62.927124 69.659126 77.657127 81.155128 88.151123 95.147125"
             y="0"
             sodipodi:role="line"
             id="tspan524">ctg.s1.4.arrow.505</tspan></text></g><path
         d="M 59.304797,153.5247 H 161.41417 c 2.2,0 3.3,1.1 3.3,3.3 v 10.64062 c 0,2.2 -1.1,3.3 -3.3,3.3 H 59.304797 c -2.2,0 -3.3,-1.1 -3.3,-3.3 V 156.8247 c 0,-2.2 1.1,-3.3 3.3,-3.3 z"
         style="fill:#f0ecf9;fill-opacity:1;fill-rule:nonzero;stroke:#808080;stroke-width:1;stroke-linecap:butt;stroke-linejoin:miter;stroke-miterlimit:10;stroke-dasharray:none;stroke-opacity:1"
         id="path528" /><g
         id="g530"
         transform="translate(59.304797,159.10595)"><text
           transform="scale(1,-1)"
           style="font-variant:normal;font-weight:normal;font-size:11px;font-family:DejaVuSans;-inkscape-font-specification:DejaVuSans;writing-mode:lr-tb;fill:#000000;fill-opacity:1;fill-rule:nonzero;stroke:none"
           id="text534"><tspan
             x="0 6.0500002 10.362 17.347 20.844999 26.576 33.571999 37.07 44.066002 47.563999 54.306999 58.640499 62.927124 69.659126 77.657127 81.155128 88.151123 95.147125"
             y="0"
             sodipodi:role="line"
             id="tspan532">ctg.s1.4.arrow.489</tspan></text></g><path
         d="m 558.5528,153.5247 h 102.10937 c 2.2,0 3.3,1.1 3.3,3.3 v 10.64062 c 0,2.2 -1.1,3.3 -3.3,3.3 H 558.5528 c -2.2,0 -3.3,-1.1 -3.3,-3.3 V 156.8247 c 0,-2.2 1.1,-3.3 3.3,-3.3 z"
         style="fill:#f0ecf9;fill-opacity:1;fill-rule:nonzero;stroke:#808080;stroke-width:1;stroke-linecap:butt;stroke-linejoin:miter;stroke-miterlimit:10;stroke-dasharray:none;stroke-opacity:1"
         id="path536" /><g
         id="g538"
         transform="translate(558.5528,159.10595)"><text
           transform="scale(1,-1)"
           style="font-variant:normal;font-weight:normal;font-size:11px;font-family:DejaVuSans;-inkscape-font-specification:DejaVuSans;writing-mode:lr-tb;fill:#000000;fill-opacity:1;fill-rule:nonzero;stroke:none"
           id="text542"><tspan
             x="0 6.0500002 10.362 17.347 20.844999 26.576 33.571999 37.07 44.066002 47.563999 54.306999 58.640499 62.927124 69.659126 77.657127 81.155128 88.151123 95.147125"
             y="0"
             sodipodi:role="line"
             id="tspan540">ctg.s1.4.arrow.506</tspan></text></g><path
         d="M 43.703297,202.34834 H 145.81267 c 2.2,0 3.3,1.1 3.3,3.3 v 10.64062 c 0,2.2 -1.1,3.3 -3.3,3.3 H 43.703297 c -2.2,0 -3.3,-1.1 -3.3,-3.3 v -10.64062 c 0,-2.2 1.1,-3.3 3.3,-3.3 z"
         style="fill:#f0ecf9;fill-opacity:1;fill-rule:nonzero;stroke:#808080;stroke-width:1;stroke-linecap:butt;stroke-linejoin:miter;stroke-miterlimit:10;stroke-dasharray:none;stroke-opacity:1"
         id="path544" /><g
         id="g546"
         transform="translate(43.703297,207.92959)"><text
           transform="scale(1,-1)"
           style="font-variant:normal;font-weight:normal;font-size:11px;font-family:DejaVuSans;-inkscape-font-specification:DejaVuSans;writing-mode:lr-tb;fill:#000000;fill-opacity:1;fill-rule:nonzero;stroke:none"
           id="text550"><tspan
             x="0 6.0500002 10.362 17.347 20.844999 26.576 33.571999 37.07 44.066002 47.563999 54.306999 58.640499 62.927124 69.659126 77.657127 81.155128 88.151123 95.147125"
             y="0"
             sodipodi:role="line"
             id="tspan548">ctg.s1.4.arrow.488</tspan></text></g><path
         d="m 574.1543,202.34834 h 102.10937 c 2.2,0 3.3,1.1 3.3,3.3 v 10.64062 c 0,2.2 -1.1,3.3 -3.3,3.3 H 574.1543 c -2.2,0 -3.3,-1.1 -3.3,-3.3 v -10.64062 c 0,-2.2 1.1,-3.3 3.3,-3.3 z"
         style="fill:#f0ecf9;fill-opacity:1;fill-rule:nonzero;stroke:#808080;stroke-width:1;stroke-linecap:butt;stroke-linejoin:miter;stroke-miterlimit:10;stroke-dasharray:none;stroke-opacity:1"
         id="path552" /><g
         id="g554"
         transform="translate(574.1543,207.92959)"><text
           transform="scale(1,-1)"
           style="font-variant:normal;font-weight:normal;font-size:11px;font-family:DejaVuSans;-inkscape-font-specification:DejaVuSans;writing-mode:lr-tb;fill:#000000;fill-opacity:1;fill-rule:nonzero;stroke:none"
           id="text558"><tspan
             x="0 6.0500002 10.362 17.347 20.844999 26.576 33.571999 37.07 44.066002 47.563999 54.306999 58.640499 62.927124 69.659126 77.657127 81.155128 88.151123 95.147125"
             y="0"
             sodipodi:role="line"
             id="tspan556">ctg.s1.4.arrow.507</tspan></text></g><path
         d="M 28.101797,226.76016 H 130.21117 c 2.2,0 3.3,1.1 3.3,3.3 v 10.64062 c 0,2.2 -1.1,3.3 -3.3,3.3 H 28.101797 c -2.2,0 -3.3,-1.1 -3.3,-3.3 v -10.64062 c 0,-2.2 1.1,-3.3 3.3,-3.3 z"
         style="fill:#f0ecf9;fill-opacity:1;fill-rule:nonzero;stroke:#808080;stroke-width:1;stroke-linecap:butt;stroke-linejoin:miter;stroke-miterlimit:10;stroke-dasharray:none;stroke-opacity:1"
         id="path560" /><g
         id="g562"
         transform="translate(28.101797,232.34141)"><text
           transform="scale(1,-1)"
           style="font-variant:normal;font-weight:normal;font-size:11px;font-family:DejaVuSans;-inkscape-font-specification:DejaVuSans;writing-mode:lr-tb;fill:#000000;fill-opacity:1;fill-rule:nonzero;stroke:none"
           id="text566"><tspan
             x="0 6.0500002 10.362 17.347 20.844999 26.576 33.571999 37.07 44.066002 47.563999 54.306999 58.640499 62.927124 69.659126 77.657127 81.155128 88.151123 95.147125"
             y="0"
             sodipodi:role="line"
             id="tspan564">ctg.s1.4.arrow.487</tspan></text></g><path
         d="m 589.7558,226.76016 h 102.10937 c 2.2,0 3.3,1.1 3.3,3.3 v 10.64062 c 0,2.2 -1.1,3.3 -3.3,3.3 H 589.7558 c -2.2,0 -3.3,-1.1 -3.3,-3.3 v -10.64062 c 0,-2.2 1.1,-3.3 3.3,-3.3 z"
         style="fill:#f0ecf9;fill-opacity:1;fill-rule:nonzero;stroke:#808080;stroke-width:1;stroke-linecap:butt;stroke-linejoin:miter;stroke-miterlimit:10;stroke-dasharray:none;stroke-opacity:1"
         id="path568" /><g
         id="g570"
         transform="translate(589.7558,232.34141)"><text
           transform="scale(1,-1)"
           style="font-variant:normal;font-weight:normal;font-size:11px;font-family:DejaVuSans;-inkscape-font-specification:DejaVuSans;writing-mode:lr-tb;fill:#000000;fill-opacity:1;fill-rule:nonzero;stroke:none"
           id="text574"><tspan
             x="0 6.0500002 10.362 17.347 20.844999 26.576 33.571999 37.07 44.066002 47.563999 54.306999 58.640499 62.927124 69.659126 77.657127 81.155128 88.151123 95.147125"
             y="0"
             sodipodi:role="line"
             id="tspan572">ctg.s1.4.arrow.508</tspan></text></g><path
         d="M 12.500297,177.93652 H 114.60967 c 2.2,0 3.3,1.1 3.3,3.3 v 10.64062 c 0,2.2 -1.1,3.3 -3.3,3.3 H 12.500297 c -2.2,0 -3.3,-1.1 -3.3,-3.3 v -10.64062 c 0,-2.2 1.1,-3.3 3.3,-3.3 z"
         style="fill:#f0ecf9;fill-opacity:1;fill-rule:nonzero;stroke:#808080;stroke-width:1;stroke-linecap:butt;stroke-linejoin:miter;stroke-miterlimit:10;stroke-dasharray:none;stroke-opacity:1"
         id="path576" /><g
         id="g578"
         transform="translate(12.500298,183.51777)"><text
           transform="scale(1,-1)"
           style="font-variant:normal;font-weight:normal;font-size:11px;font-family:DejaVuSans;-inkscape-font-specification:DejaVuSans;writing-mode:lr-tb;fill:#000000;fill-opacity:1;fill-rule:nonzero;stroke:none"
           id="text582"><tspan
             x="0 6.0500002 10.362 17.347 20.844999 26.576 33.571999 37.07 44.066002 47.563999 54.306999 58.640499 62.927124 69.659126 77.657127 81.155128 88.151123 95.147125"
             y="0"
             sodipodi:role="line"
             id="tspan580">ctg.s1.4.arrow.486</tspan></text></g><path
         d="m 605.3573,177.93652 h 102.10937 c 2.2,0 3.3,1.1 3.3,3.3 v 10.64062 c 0,2.2 -1.1,3.3 -3.3,3.3 H 605.3573 c -2.2,0 -3.3,-1.1 -3.3,-3.3 v -10.64062 c 0,-2.2 1.1,-3.3 3.3,-3.3 z"
         style="fill:#f0ecf9;fill-opacity:1;fill-rule:nonzero;stroke:#808080;stroke-width:1;stroke-linecap:butt;stroke-linejoin:miter;stroke-miterlimit:10;stroke-dasharray:none;stroke-opacity:1"
         id="path584" /><g
         id="g586"
         transform="translate(605.3573,183.51777)"><text
           transform="scale(1,-1)"
           style="font-variant:normal;font-weight:normal;font-size:11px;font-family:DejaVuSans;-inkscape-font-specification:DejaVuSans;writing-mode:lr-tb;fill:#000000;fill-opacity:1;fill-rule:nonzero;stroke:none"
           id="text590"><tspan
             x="0 6.0500002 10.362 17.347 20.844999 26.576 33.571999 37.07 44.066002 47.563999 54.306999 58.640499 62.927124 69.659126 77.657127 81.155128 88.151123 95.147125"
             y="0"
             sodipodi:role="line"
             id="tspan588">ctg.s1.4.arrow.509</tspan></text></g></g></g></svg>
